<svg xmlns="http://www.w3.org/2000/svg" xmlns:vectornator="http://vectornator.io" xmlns:xlink="http://www.w3.org/1999/xlink" stroke-miterlimit="10" style="fill-rule:nonzero;clip-rule:evenodd;stroke-linecap:round;stroke-linejoin:round;" version="1.1" xml:space="preserve" viewBox="372.92 445.4 112.41 115.56">
<style>
.favicon {
  fill: #c084fc;
}
@media (prefers-color-scheme: dark) {
  .favicon {
    fill: #1e293b;
  }
}
</style>
<metadata>
<vectornator:setting key="IsTimeLapseWatermarkDisabled" value="false"/>
<vectornator:setting key="UndoHistoryDisabled" value="true"/>
<vectornator:setting key="VNDimensionsVisible" value="true"/>
<vectornator:setting key="VNSnapToGuides" value="true"/>
<vectornator:setting key="WDCMYKEnabledKey" value="false"/>
<vectornator:setting key="WDDisplayWhiteBackground" value="false"/>
<vectornator:setting key="WDDynamicGuides" value="false"/>
<vectornator:setting key="WDGuidesVisible" value="true"/>
<vectornator:setting key="WDIsolateActiveLayer" value="false"/>
<vectornator:setting key="WDOutlineMode" value="false"/>
<vectornator:setting key="WDRulersVisible" value="true"/>
<vectornator:setting key="WDSnapToEdges" value="false"/>
<vectornator:setting key="WDSnapToGrid" value="false"/>
<vectornator:setting key="WDSnapToPoints" value="false"/>
<vectornator:setting key="WDUnits" value="Pixels"/>
</metadata>
<defs>
<clipPath id="TextBounds">
<rect height="115.562" width="112.406" x="372.919" y="445.405"/>
</clipPath>
</defs>
<g id="Layer-1" vectornator:layerName="Layer 1">
<path class="favicon" clip-path="url(#TextBounds)" d="M431.279 551.483C437.935 551.483 444.185 550.218 450.029 547.687C455.872 545.155 461.029 541.655 465.497 537.187C469.966 532.718 473.466 527.554 475.997 521.694C478.529 515.835 479.794 509.593 479.794 502.968C479.794 496.343 478.529 490.108 475.997 484.265C473.466 478.421 469.966 473.265 465.497 468.796C461.029 464.327 455.864 460.827 450.005 458.296C444.146 455.765 437.904 454.499 431.279 454.499C424.622 454.499 418.372 455.765 412.529 458.296C406.685 460.827 401.536 464.327 397.083 468.796C392.63 473.265 389.138 478.421 386.607 484.265C384.075 490.108 382.81 496.343 382.81 502.968C382.81 509.593 384.075 515.835 386.607 521.694C389.138 527.554 392.638 532.718 397.107 537.187C401.575 541.655 406.732 545.155 412.575 547.687C418.419 550.218 424.654 551.483 431.279 551.483ZM431.279 541.733C425.904 541.733 420.88 540.733 416.208 538.733C411.536 536.733 407.427 533.96 403.88 530.413C400.333 526.866 397.56 522.749 395.56 518.062C393.56 513.374 392.56 508.343 392.56 502.968C392.56 497.593 393.56 492.562 395.56 487.874C397.56 483.187 400.325 479.069 403.857 475.522C407.388 471.976 411.497 469.202 416.185 467.202C420.872 465.202 425.904 464.202 431.279 464.202C436.654 464.202 441.677 465.202 446.349 467.202C451.021 469.202 455.138 471.976 458.7 475.522C462.263 479.069 465.052 483.187 467.068 487.874C469.083 492.562 470.091 497.593 470.091 502.968C470.091 508.343 469.091 513.374 467.091 518.062C465.091 522.749 462.318 526.866 458.771 530.413C455.224 533.96 451.107 536.733 446.419 538.733C441.732 540.733 436.685 541.733 431.279 541.733ZM418.997 522.702C421.622 522.702 423.919 521.929 425.888 520.382C427.857 518.835 429.388 516.593 430.482 513.655C431.575 510.718 432.122 507.171 432.122 503.015C432.122 498.858 431.575 495.312 430.482 492.374C429.388 489.437 427.857 487.194 425.888 485.647C423.919 484.101 421.622 483.327 418.997 483.327C416.404 483.327 414.122 484.101 412.154 485.647C410.185 487.194 408.661 489.437 407.583 492.374C406.505 495.312 405.966 498.858 405.966 503.015C405.966 507.171 406.505 510.718 407.583 513.655C408.661 516.593 410.185 518.835 412.154 520.382C414.122 521.929 416.404 522.702 418.997 522.702ZM419.044 516.374C417.107 516.374 415.568 515.218 414.427 512.905C413.286 510.593 412.716 507.296 412.716 503.015C412.716 498.733 413.286 495.437 414.427 493.124C415.568 490.812 417.107 489.655 419.044 489.655C420.982 489.655 422.521 490.812 423.661 493.124C424.802 495.437 425.372 498.733 425.372 503.015C425.372 507.296 424.802 510.593 423.661 512.905C422.521 515.218 420.982 516.374 419.044 516.374ZM450.825 522.233C453.013 522.233 454.107 521.077 454.107 518.765L454.107 487.499C454.107 486.312 453.763 485.358 453.075 484.64C452.388 483.921 451.466 483.562 450.31 483.562C449.497 483.562 448.779 483.694 448.154 483.96C447.529 484.226 446.763 484.702 445.857 485.39L439.341 490.03C438.154 490.937 437.56 491.983 437.56 493.171C437.56 494.015 437.857 494.726 438.45 495.304C439.044 495.882 439.716 496.171 440.466 496.171C440.935 496.171 441.341 496.108 441.685 495.983C442.029 495.858 442.466 495.562 442.997 495.093L447.31 491.765L447.591 491.765L447.591 518.765C447.591 521.077 448.669 522.233 450.825 522.233Z" fill="none" fill-rule="evenodd" opacity="1" stroke="none"/>
</g>
</svg>
